<?xml version="1.0" encoding="utf-8"?>
<!-- Generator: Adobe Illustrator 25.4.1, SVG Export Plug-In . SVG Version: 6.00 Build 0)  -->
<svg version="1.1" id="Layer_1" xmlns="http://www.w3.org/2000/svg" xmlns:xlink="http://www.w3.org/1999/xlink" x="0px" y="0px"
	 viewBox="0 0 447 500" style="enable-background:new 0 0 447 500;" xml:space="preserve">
<style type="text/css">
	.st0{fill:#F0F0F0;}
	.st1{fill:#FC7FC1;}
	.st2{fill:#FF6941;}
	.st3{fill:#FFB600;}
	.st4{fill:#FFE800;}
	.st5{fill:#2E9DD1;}
	.st6{fill:#00C268;}
	.st7{fill:#C0C0C0;}
	.st8{fill:#FFFFFF;}
	.st9{fill:#241F20;}
	.st10{fill:#FFBFFF;}
	.st11{fill:#008FFF;}
</style>
<g>
	<g>
		<path class="st8" d="M277.07,437.5H169.93c-88.76,0-160.71-71.95-160.71-160.71V169.65C9.22,80.89,81.17,8.93,169.93,8.93h107.14
			c88.76,0,160.71,71.95,160.71,160.71v107.14C437.79,365.55,365.83,437.5,277.07,437.5z"/>
		<path class="st9" d="M277.07,446.43H169.93c-93.54,0-169.64-76.1-169.64-169.64V169.64C0.29,76.1,76.39,0,169.93,0h107.14
			c93.54,0,169.64,76.1,169.64,169.64v107.14C446.71,370.33,370.61,446.43,277.07,446.43z M169.93,17.86
			c-83.7,0-151.79,68.09-151.79,151.79v107.14c0,83.7,68.09,151.79,151.79,151.79h107.14c83.7,0,151.79-68.09,151.79-151.79V169.64
			c0-83.7-68.09-151.79-151.79-151.79H169.93z"/>
	</g>
	<g>
		<path class="st8" d="M277.07,491.07H169.93c-88.76,0-160.71-71.95-160.71-160.71V223.22c0-88.76,71.95-160.71,160.71-160.71
			h107.14c88.76,0,160.71,71.95,160.71,160.71v107.14C437.79,419.12,365.83,491.07,277.07,491.07z"/>
		<path class="st9" d="M277.07,500H169.93C76.39,500,0.29,423.9,0.29,330.36V223.21c0-93.54,76.1-169.64,169.64-169.64h107.14
			c93.54,0,169.64,76.1,169.64,169.64v107.14C446.71,423.9,370.61,500,277.07,500z M169.93,71.43
			c-83.7,0-151.79,68.09-151.79,151.79v107.14c0,83.7,68.09,151.79,151.79,151.79h107.14c83.7,0,151.79-68.09,151.79-151.79V223.21
			c0-83.7-68.09-151.79-151.79-151.79H169.93z"/>
	</g>
	<g>
		<path d="M211.06,209.63h24.12l40.51,114.94h-24.27l-7.72-24.43h-41.48l-7.55,24.43h-23.64L211.06,209.63z M207.68,282.28h30.39
			l-10.29-33.12c-1.94-6.1-4.66-17.68-4.66-17.68h-0.32c0,0-2.89,11.58-4.82,17.68L207.68,282.28z"/>
	</g>
</g>
</svg>
