<?xml version="1.0" encoding="utf-8"?>
<!-- Generator: Adobe Illustrator 25.4.1, SVG Export Plug-In . SVG Version: 6.00 Build 0)  -->
<svg version="1.1" id="Layer_1" xmlns="http://www.w3.org/2000/svg" xmlns:xlink="http://www.w3.org/1999/xlink" x="0px" y="0px"
	 viewBox="0 0 980 500" style="enable-background:new 0 0 980 500;" xml:space="preserve">
<style type="text/css">
	.st0{fill:#F0F0F0;}
	.st1{fill:#FC7FC1;}
	.st2{fill:#FF6941;}
	.st3{fill:#FFB600;}
	.st4{fill:#FFE800;}
	.st5{fill:#2E9DD1;}
	.st6{fill:#00C268;}
	.st7{fill:#C0C0C0;}
	.st8{fill:#FFFFFF;}
	.st9{fill:#241F20;}
	.st10{fill:#FFBFFF;}
	.st11{fill:#008FFF;}
</style>
<g>
	<g>
		<path class="st1" d="M490,490H130c-66.27,0-120-53.73-120-120V130C10,63.73,63.73,10,130,10h360V490z"/>
		<path d="M490,500H130C58.32,500,0,441.68,0,370V130C0,58.32,58.32,0,130,0h360c5.53,0,10,4.47,10,10v480
			C500,495.53,495.53,500,490,500z M130,20C69.35,20,20,69.35,20,130v240c0,60.65,49.35,110,110,110h350V20H130z"/>
	</g>
	<g>
		<path d="M850,500H490c-5.53,0-10-4.47-10-10V10c0-5.53,4.47-10,10-10h360c71.68,0,130,58.32,130,130v240
			C980,441.68,921.68,500,850,500z M500,480h350c60.65,0,110-49.35,110-110V130c0-60.65-49.35-110-110-110H500V480z"/>
	</g>
	<g>
		<path d="M200.87,174.78h57.62c13.87,0,24.49,3.42,31.15,9.36c7.02,6.31,10.26,14.04,10.26,24.12c0,13.14-8.11,21.62-20.17,25.76
			v0.53c14.22,4.14,23.95,16.04,23.95,31.88c0,12.07-3.78,20.35-11.35,26.84c-7.38,6.46-18.72,10.25-32.4,10.25h-59.06V174.78z
			 M255.24,226.63c11.35,0,19.09-5.41,19.09-15.49c0-9.55-7.03-15.14-18.55-15.14h-28.81v30.62H255.24z M226.97,281.9h30.08
			c12.6,0,20.17-7.03,20.17-17.46c0-12.25-9-18.55-20.89-18.55h-29.36V281.9z"/>
	</g>
	<g>
		<path d="M681.33,174.79h59.06c24.84,0,41.41,14.39,41.41,35.82c0,15.12-7.02,26.64-23.58,31.15v0.55
			c11.88,3.42,18.01,10.25,19.63,25.92c1.8,18.18,1.07,32.05,5.58,34.02v1.27h-25.03c-3.24-1.45-3.59-15.84-4.68-29.71
			c-1.08-14.04-9-21.97-25.21-21.97h-21.06v51.68h-26.11V174.79z M707.44,231.68h27.72c14.22,0,21.24-7.38,21.24-17.66
			c0-10.43-6.66-18.18-20.52-18.18h-28.45V231.68z"/>
	</g>
</g>
</svg>
