<?xml version="1.0" encoding="utf-8"?>
<!-- Generator: Adobe Illustrator 25.4.1, SVG Export Plug-In . SVG Version: 6.00 Build 0)  -->
<svg version="1.1" id="Layer_1" xmlns="http://www.w3.org/2000/svg" xmlns:xlink="http://www.w3.org/1999/xlink" x="0px" y="0px"
	 viewBox="0 0 500 500" style="enable-background:new 0 0 500 500;" xml:space="preserve">
<style type="text/css">
	.st0{fill:#F0F0F0;}
	.st1{fill:#FC7FC1;}
	.st2{fill:#FF6941;}
	.st3{fill:#FFB600;}
	.st4{fill:#FFE800;}
	.st5{fill:#2E9DD1;}
	.st6{fill:#00C268;}
	.st7{fill:#C0C0C0;}
	.st8{fill:#FFFFFF;}
	.st9{fill:#241F20;}
	.st10{fill:#FFBFFF;}
	.st11{fill:#008FFF;}
</style>
<g>
	<polygon class="st8" points="437.5,8.93 8.93,8.93 8.93,437.5 62.5,491.07 491.07,491.07 491.07,62.5 	"/>
	<path class="st9" d="M500,500H58.8L0,441.2V0h441.2L500,58.8V500z M66.2,482.14h415.95V66.2L433.8,17.86H17.86V433.8L66.2,482.14z"
		/>
	<g>
		<rect x="71.43" y="71.43" class="st8" width="410.71" height="410.71"/>
		<path class="st9" d="M500,58.8l-5.23-5.23H53.57v441.2L58.8,500H500V58.8z M491.07,491.08H62.5V62.5h21.26h407.31V491.08z"/>
		<path class="st9" d="M62.5,62.5v428.57h428.57V62.5H83.76H62.5z M482.14,482.14H71.43V71.43h410.71V482.14z"/>
	</g>
	<g>
		<path d="M235.89,209.62h84.56v19.6h-61.24v25.72h53.69v19.13h-53.69v31.04h61.73v19.44h-85.05V209.62z"/>
	</g>
</g>
</svg>
