<?xml version="1.0" encoding="utf-8"?>
<!-- Generator: Adobe Illustrator 25.4.1, SVG Export Plug-In . SVG Version: 6.00 Build 0)  -->
<svg version="1.1" id="Layer_1" xmlns="http://www.w3.org/2000/svg" xmlns:xlink="http://www.w3.org/1999/xlink" x="0px" y="0px"
	 viewBox="0 0 1460 500" style="enable-background:new 0 0 1460 500;" xml:space="preserve">
<style type="text/css">
	.st0{fill:#F0F0F0;}
	.st1{fill:#FC7FC1;}
	.st2{fill:#FF6941;}
	.st3{fill:#FFB600;}
	.st4{fill:#FFE800;}
	.st5{fill:#2E9DD1;}
	.st6{fill:#00C268;}
	.st7{fill:#C0C0C0;}
	.st8{fill:#FFFFFF;}
	.st9{fill:#241F20;}
	.st10{fill:#FFBFFF;}
	.st11{fill:#008FFF;}
</style>
<g>
	<g>
		<path class="st8" d="M1210,10H730H250C117.45,10,10,117.45,10,250s107.45,240,240,240h480h480c132.55,0,240-107.45,240-240
			S1342.55,10,1210,10z"/>
		<path d="M1210,500H250C112.15,500,0,387.85,0,250S112.15,0,250,0h960c137.85,0,250,112.15,250,250S1347.85,500,1210,500z M250,20
			C123.17,20,20,123.17,20,250s103.17,230,230,230h960c126.83,0,230-103.17,230-230S1336.83,20,1210,20H250z"/>
	</g>
	<g>
		<path d="M289.99,239.59c0-38.16,23.77-67.32,61.77-67.32c31.69,0,50.41,18.89,53.12,43.38h-25.93
			c-2.34-12.97-12.07-21.43-27.19-21.43c-23.77,0-35.12,19.8-35.12,45.37c0,26.29,13.68,45.2,35.29,45.2
			c15.3,0,26.1-9.18,27.72-22.68h25.57c-0.71,11.33-5.58,22.32-14.22,30.43c-8.83,8.28-21.25,13.67-39.07,13.67
			C315.74,306.21,289.99,278.3,289.99,239.59z"/>
		<path d="M413.12,239.41c0-38.54,24.12-67.15,62.11-67.15c38,0,61.94,28.61,61.94,67.15s-23.95,66.97-61.94,66.97
			C437.24,306.39,413.12,277.95,413.12,239.41z M510.52,239.41c0-25.74-11.52-45.72-35.11-45.72s-35.65,19.98-35.65,45.72
			c0,25.57,12.07,45.55,35.65,45.55S510.52,264.98,510.52,239.41z"/>
		<path d="M551.36,174.79h26.46l42.85,71.84c4.15,7.01,9,18.01,9,18.01h0.36c0,0-0.71-13.32-0.71-22.32v-67.52h25.74v128.73h-25.21
			l-43.94-71.11c-4.14-6.86-9.18-17.83-9.18-17.83h-0.36c0,0,0.72,13.5,0.72,22.5v66.45h-25.75V174.79z"/>
		<path d="M668.17,174.79H771.7v21.95h-38.71v106.78h-26.1V196.74h-38.71V174.79z"/>
		<path d="M784.99,174.79h26.11v128.73h-26.11V174.79z"/>
		<path d="M831.06,174.79h26.46l42.85,71.84c4.15,7.01,9,18.01,9,18.01h0.36c0,0-0.71-13.32-0.71-22.32v-67.52h25.74v128.73h-25.21
			l-43.94-71.11c-4.14-6.86-9.18-17.83-9.18-17.83h-0.36c0,0,0.72,13.5,0.72,22.5v66.45h-25.75V174.79z"/>
		<path d="M953.47,262.11v-87.32h26.11v87.32c0,13.32,6.66,22.68,24.12,22.68c16.57,0,24.32-9.73,24.32-23.05v-86.95h26.1v87.32
			c0,27.54-16.92,43.57-49.87,43.57C970.94,305.68,953.47,290.02,953.47,262.11z"/>
		<path d="M1072.8,174.79h94.71v21.95h-68.59v28.81h60.14v21.43h-60.14v34.77h69.14v21.78h-95.25V174.79z"/>
	</g>
</g>
</svg>
