<?xml version="1.0" encoding="utf-8"?>
<!-- Generator: Adobe Illustrator 25.4.1, SVG Export Plug-In . SVG Version: 6.00 Build 0)  -->
<svg version="1.1" id="Layer_1" xmlns="http://www.w3.org/2000/svg" xmlns:xlink="http://www.w3.org/1999/xlink" x="0px" y="0px"
	 viewBox="0 0 600 500" style="enable-background:new 0 0 600 500;" xml:space="preserve">
<style type="text/css">
	.st0{fill:#F0F0F0;}
	.st1{fill:#FC7FC1;}
	.st2{fill:#FF6941;}
	.st3{fill:#FFB600;}
	.st4{fill:#FFE800;}
	.st5{fill:#2E9DD1;}
	.st6{fill:#00C268;}
	.st7{fill:#C0C0C0;}
	.st8{fill:#FFFFFF;}
	.st9{fill:#241F20;}
	.st10{fill:#FFBFFF;}
	.st11{fill:#008FFF;}
</style>
<g>
	<g>
		<path class="st1" d="M250,10C117.46,10,10.01,117.45,10,249.99c-0.01,119.2,91.33,222.64,209.53,238.04
			c11.46,1.49,22.76,2.11,33.86,1.96c31.2-0.45,62.36-0.4,93.56,0c10.91,0.14,22.02-0.47,33.27-1.93
			C498.4,472.79,589.83,369.52,590,250.36C590.19,117.65,482.67,10,350,10c-0.17,0-0.34,0-0.52,0c-33,0.07-65.97,0.07-98.97,0
			C250.35,10,250.17,10,250,10z"/>
		<path d="M250.09,500c-10.66,0-21.36-0.68-31.85-2.06C95.85,481.99-0.01,373.08,0,249.99C0.01,112.15,112.16,0,250,0h0.52
			c33,0.08,65.95,0.08,98.95,0c67.38,0,130.21,26.05,177.44,73.36c47.24,47.29,73.19,110.17,73.1,177.01
			c-0.18,123.04-96.14,231.8-218.5,247.61c-11.49,1.47-23.18,2.08-34.69,2c-31.09-0.39-62.16-0.44-93.27,0
			C252.39,500,251.24,500,250.09,500z M250,10v10C123.18,20,20.01,123.17,20,249.99c-0.01,113.23,88.2,213.44,200.82,228.12
			c10.68,1.39,21.51,2.07,32.44,1.87c31.29-0.45,62.53-0.4,93.82,0c10.62,0.15,21.31-0.48,31.87-1.85
			c112.58-14.54,200.9-114.6,201.05-227.78c0.09-61.5-23.79-119.35-67.25-162.86C469.3,43.96,411.49,20,350,20
			c-33.52,0.08-66.49,0.08-99.5,0L250,10z"/>
	</g>
	<g>
		<circle class="st10" cx="250" cy="250" r="240"/>
		<path d="M250,500C112.15,500,0,387.85,0,250S112.15,0,250,0s250,112.15,250,250S387.85,500,250,500z M250,20
			C123.17,20,20,123.17,20,250s103.17,230,230,230s230-103.17,230-230S376.83,20,250,20z"/>
	</g>
	<g>
		<path d="M287.3,286.22h-0.36c-8.82,14.77-20.89,19.98-36.19,19.98c-19.44,0-34.57-7.01-45.19-18.71
			c-10.62-11.89-16.75-28.46-16.75-47.91c0-21.43,7.56-40.14,21.06-52.58c10.44-9.53,24.13-14.75,41.42-14.75
			c32.4,0,50.95,17.81,55.09,43.03h-25.57c-2.88-12.42-12.42-21.43-28.98-21.43c-24.31,0-36.37,20.16-36.37,45.72
			c0,26.29,13.86,45.57,36.01,45.57c19.99,0,33.13-14.94,33.13-29.18v-0.72h-30.98v-20.16h54.2v68.42H288.2L287.3,286.22z"/>
	</g>
</g>
</svg>
