<?xml version="1.0" encoding="utf-8"?>
<!-- Generator: Adobe Illustrator 25.4.1, SVG Export Plug-In . SVG Version: 6.00 Build 0)  -->
<svg version="1.1" id="Layer_1" xmlns="http://www.w3.org/2000/svg" xmlns:xlink="http://www.w3.org/1999/xlink" x="0px" y="0px"
	 viewBox="0 0 500 500" style="enable-background:new 0 0 500 500;" xml:space="preserve">
<style type="text/css">
	.st0{fill:#F0F0F0;}
	.st1{fill:#FC7FC1;}
	.st2{fill:#FF6941;}
	.st3{fill:#FFB600;}
	.st4{fill:#FFE800;}
	.st5{fill:#2E9DD1;}
	.st6{fill:#00C268;}
	.st7{fill:#C0C0C0;}
	.st8{fill:#FFFFFF;}
	.st9{fill:#241F20;}
	.st10{fill:#FFBFFF;}
	.st11{fill:#008FFF;}
</style>
<g>
	<g>
		<g>
			<path class="st8" d="M373.13,70.32C327.49,25.5,261.98,0.89,190.91,11.31C100.66,24.54,30.2,91.31,13.03,180.89
				c-14.36,74.9,10.41,144.44,57.32,192.22c12.79,13.02,43.54,43.77,56.56,56.56c47.77,46.91,117.31,71.68,192.21,57.32
				c89.58-17.17,156.35-87.64,169.58-177.88c10.42-71.08-14.19-136.58-59.01-182.22C416.91,113.86,386.15,83.11,373.13,70.32z"/>
			<path d="M276.51,500c-58.27,0.01-113.4-22.27-155.86-63.96c-13.05-12.82-43.86-43.63-56.67-56.67
				C11.82,326.25-9.95,253.3,4.26,179.21C22.19,85.72,94.94,16.35,189.6,2.48c70.34-10.31,139.5,12.1,189.77,61.47l0,0
				c13.05,12.82,43.87,43.64,56.68,56.68c49.37,50.28,71.78,119.45,61.48,189.77c-13.87,94.67-83.25,167.43-176.73,185.35
				C305.95,498.6,291.13,500,276.51,500z M223.11,17.87c-10.24,0-20.56,0.75-30.91,2.27C105.16,32.9,38.27,96.66,21.8,182.57
				c-13.1,68.24,6.92,135.41,54.92,184.27c12.76,12.99,43.45,43.68,56.45,56.45c48.86,47.98,116.01,68,184.27,54.91
				c85.92-16.47,149.68-83.36,162.43-170.4c9.49-64.75-11.13-128.41-56.56-174.68c-12.76-12.99-43.44-43.67-56.44-56.44l0,0
				C328.01,38.53,276.86,17.87,223.11,17.87z"/>
		</g>
		<g>
			<circle class="st8" cx="223.23" cy="223.21" r="214.27"/>
			<path d="M223.23,446.41c-123.08,0-223.2-100.13-223.2-223.2S100.16,0,223.23,0s223.2,100.13,223.2,223.2
				S346.31,446.41,223.23,446.41z M223.23,17.86C110,17.86,17.89,109.97,17.89,223.2S110,428.55,223.23,428.55
				s205.35-92.11,205.35-205.35S336.46,17.86,223.23,17.86z"/>
		</g>
	</g>
	<g>
		<path d="M179.36,156.04h51.44c12.38,0,21.87,3.05,27.81,8.35c6.28,5.63,9.17,12.54,9.17,21.54c0,11.74-7.24,19.3-18.01,23v0.47
			c12.69,3.7,21.38,14.32,21.38,28.46c0,10.78-3.37,18.17-10.13,23.96c-6.59,5.77-16.71,9.15-28.93,9.15h-52.73V156.04z
			 M227.91,202.34c10.13,0,17.05-4.83,17.05-13.83c0-8.53-6.28-13.51-16.57-13.51h-25.72v27.34H227.91z M202.67,251.69h26.85
			c11.25,0,18-6.28,18-15.59c0-10.93-8.04-16.57-18.64-16.57h-26.21V251.69z"/>
	</g>
</g>
</svg>
