<?xml version="1.0" encoding="utf-8"?>
<!-- Generator: Adobe Illustrator 25.4.1, SVG Export Plug-In . SVG Version: 6.00 Build 0)  -->
<svg version="1.1" id="Layer_1" xmlns="http://www.w3.org/2000/svg" xmlns:xlink="http://www.w3.org/1999/xlink" x="0px" y="0px"
	 viewBox="0 0 1460 500" style="enable-background:new 0 0 1460 500;" xml:space="preserve">
<style type="text/css">
	.st0{fill:#F0F0F0;}
	.st1{fill:#FC7FC1;}
	.st2{fill:#FF6941;}
	.st3{fill:#FFB600;}
	.st4{fill:#FFE800;}
	.st5{fill:#2E9DD1;}
	.st6{fill:#00C268;}
	.st7{fill:#C0C0C0;}
	.st8{fill:#FFFFFF;}
	.st9{fill:#241F20;}
	.st10{fill:#FFBFFF;}
	.st11{fill:#008FFF;}
</style>
<g>
	<g>
		<path class="st0" d="M1210,10H730H250C117.45,10,10,117.45,10,250s107.45,240,240,240h480h480c132.55,0,240-107.45,240-240
			S1342.55,10,1210,10z"/>
		<path d="M1210,500H250C112.15,500,0,387.85,0,250S112.15,0,250,0h960c137.85,0,250,112.15,250,250S1347.85,500,1210,500z M250,20
			C123.17,20,20,123.17,20,250s103.17,230,230,230h960c126.83,0,230-103.17,230-230S1336.83,20,1210,20H250z"/>
	</g>
	<g>
		<path d="M460.19,263.73h25.57c1.81,15.47,10.62,21.6,28.99,21.6c13.32,0,25.02-4.69,25.02-16.56c0-12.62-12.24-15.14-31.87-19.63
			c-23.05-5.21-44.11-11.35-44.11-38.16c0-25.39,20.7-38.54,49.34-38.54c28.98,0,47.71,14.22,49.69,40.16h-25.02
			c-1.45-12.97-11.52-19.45-24.85-19.45c-14.04,0-23.22,5.94-23.22,15.12c0,10.45,9,13.52,28.09,17.66
			c26.46,5.76,48.08,12.05,48.08,39.79c0,26.11-21.06,40.68-50.06,40.68C480.89,306.39,461.08,290.92,460.19,263.73z"/>
		<path d="M569.44,174.79h103.53v21.95h-38.71v106.78h-26.1V196.74h-38.71V174.79z"/>
		<path d="M705.35,174.79h27.01l45.37,128.73h-27.19l-8.64-27.36h-46.46l-8.46,27.36h-26.47L705.35,174.79z M701.57,256.15h34.03
			l-11.52-37.09c-2.16-6.84-5.22-19.8-5.22-19.8h-0.36c0,0-3.24,12.97-5.4,19.8L701.57,256.15z"/>
		<path d="M788.51,174.79h59.06c24.84,0,41.41,14.39,41.41,35.82c0,15.12-7.02,26.64-23.58,31.15v0.55
			c11.88,3.42,18.01,10.25,19.63,25.92c1.8,18.18,1.07,32.05,5.58,34.02v1.27h-25.03c-3.24-1.45-3.59-15.84-4.68-29.71
			c-1.08-14.04-9-21.97-25.21-21.97h-21.06v51.68h-26.11V174.79z M814.62,231.68h27.72c14.22,0,21.24-7.38,21.24-17.66
			c0-10.43-6.66-18.18-20.52-18.18h-28.45V231.68z"/>
		<path d="M897.23,174.79h103.53v21.95h-38.71v106.78h-26.1V196.74h-38.71V174.79z"/>
	</g>
</g>
</svg>
