<?xml version="1.0" encoding="utf-8"?>
<!-- Generator: Adobe Illustrator 25.4.1, SVG Export Plug-In . SVG Version: 6.00 Build 0)  -->
<svg version="1.1" id="Layer_1" xmlns="http://www.w3.org/2000/svg" xmlns:xlink="http://www.w3.org/1999/xlink" x="0px" y="0px"
	 viewBox="0 0 980 500" style="enable-background:new 0 0 980 500;" xml:space="preserve">
<style type="text/css">
	.st0{fill:#F0F0F0;}
	.st1{fill:#FC7FC1;}
	.st2{fill:#FF6941;}
	.st3{fill:#FFB600;}
	.st4{fill:#FFE800;}
	.st5{fill:#2E9DD1;}
	.st6{fill:#00C268;}
	.st7{fill:#C0C0C0;}
	.st8{fill:#FFFFFF;}
	.st9{fill:#241F20;}
	.st10{fill:#FFBFFF;}
	.st11{fill:#008FFF;}
</style>
<g>
	<g>
		<path class="st8" d="M730,10H250C117.45,10,10,117.45,10,250s107.45,240,240,240h480c132.55,0,240-107.45,240-240
			S862.55,10,730,10z"/>
		<path d="M730,500H250C112.15,500,0,387.85,0,250S112.15,0,250,0h480c137.85,0,250,112.15,250,250S867.85,500,730,500z M250,20
			C123.17,20,20,123.17,20,250s103.17,230,230,230h480c126.83,0,230-103.17,230-230S856.83,20,730,20H250z"/>
	</g>
	<g>
		<circle class="st8" cx="250" cy="250" r="240"/>
		<path d="M250,500C112.15,500,0,387.85,0,250S112.15,0,250,0s250,112.15,250,250S387.85,500,250,500z M250,20
			C123.17,20,20,123.17,20,250s103.17,230,230,230s230-103.17,230-230S376.83,20,250,20z"/>
	</g>
	<g>
		<path d="M198.26,174.78h103.53v21.95h-38.71v106.78h-26.1V196.73h-38.71V174.78z"/>
	</g>
	<g>
		<path d="M678.26,174.78h103.53v21.95h-38.71v106.78h-26.1V196.73h-38.71V174.78z"/>
	</g>
</g>
</svg>
