<?xml version="1.0" encoding="utf-8"?>
<!-- Generator: Adobe Illustrator 25.4.1, SVG Export Plug-In . SVG Version: 6.00 Build 0)  -->
<svg version="1.1" id="Layer_1" xmlns="http://www.w3.org/2000/svg" xmlns:xlink="http://www.w3.org/1999/xlink" x="0px" y="0px"
	 viewBox="0 0 500 500" style="enable-background:new 0 0 500 500;" xml:space="preserve">
<style type="text/css">
	.st0{fill:#F0F0F0;}
	.st1{fill:#FC7FC1;}
	.st2{fill:#FF6941;}
	.st3{fill:#FFB600;}
	.st4{fill:#FFE800;}
	.st5{fill:#2E9DD1;}
	.st6{fill:#00C268;}
	.st7{fill:#C0C0C0;}
	.st8{fill:#FFFFFF;}
	.st9{fill:#241F20;}
	.st10{fill:#FFBFFF;}
	.st11{fill:#008FFF;}
</style>
<g>
	<g>
		<path d="M250,500C112.15,500,0,387.85,0,250S112.15,0,250,0s250,112.15,250,250S387.85,500,250,500z M250,20
			C123.17,20,20,123.17,20,250s103.17,230,230,230s230-103.17,230-230S376.83,20,250,20z"/>
	</g>
	<g>
		<g>
			<path d="M250,340c-2.66,0-5.2-1.05-7.07-2.93l-82.73-82.73l14.14-14.14L250,315.86l75.65-75.66l14.14,14.14l-82.72,82.73
				C255.2,338.95,252.66,340,250,340z"/>
		</g>
		<g>
			<rect x="240" y="170" width="20" height="160"/>
		</g>
	</g>
</g>
</svg>
