<?xml version="1.0" encoding="utf-8"?>
<!-- Generator: Adobe Illustrator 25.4.1, SVG Export Plug-In . SVG Version: 6.00 Build 0)  -->
<svg version="1.1" id="Layer_1" xmlns="http://www.w3.org/2000/svg" xmlns:xlink="http://www.w3.org/1999/xlink" x="0px" y="0px"
	 viewBox="0 0 766 500" style="enable-background:new 0 0 766 500;" xml:space="preserve">
<style type="text/css">
	.st0{fill:#F0F0F0;}
	.st1{fill:#FC7FC1;}
	.st2{fill:#FF6941;}
	.st3{fill:#FFB600;}
	.st4{fill:#FFE800;}
	.st5{fill:#2E9DD1;}
	.st6{fill:#00C268;}
	.st7{fill:#C0C0C0;}
	.st8{fill:#FFFFFF;}
	.st9{fill:#241F20;}
	.st10{fill:#FFBFFF;}
	.st11{fill:#008FFF;}
</style>
<g>
	<g>
		<rect x="7.81" y="117.18" class="st0" width="750.02" height="375.01"/>
		<path d="M757.84,500H7.81C3.49,500,0,496.51,0,492.19V117.18c0-4.32,3.49-7.81,7.81-7.81h750.02c4.32,0,7.81,3.49,7.81,7.81
			v375.01C765.65,496.51,762.15,500,757.84,500z M15.63,484.37h734.4V124.99H15.63V484.37z"/>
	</g>
	<g>
		<rect x="7.81" y="70.3" class="st0" width="375.01" height="375.01"/>
		<path d="M382.82,453.12H7.81c-4.32,0-7.81-3.49-7.81-7.81V70.3c0-4.32,3.49-7.81,7.81-7.81h375.01c4.32,0,7.81,3.49,7.81,7.81
			v375.01C390.64,449.63,387.14,453.12,382.82,453.12z M15.63,437.5h359.39V78.11H15.63V437.5z"/>
	</g>
	<g>
		<polygon class="st0" points="757.84,382.81 382.83,445.31 382.83,70.3 757.84,7.8 		"/>
		<path d="M382.82,453.12c-1.84,0-3.63-0.65-5.05-1.85c-1.75-1.48-2.76-3.66-2.76-5.96V70.3c0-3.82,2.76-7.08,6.53-7.71l375.01-62.5
			c2.26-0.34,4.59,0.26,6.33,1.75c1.75,1.48,2.76,3.66,2.76,5.96v375.01c0,3.82-2.76,7.08-6.53,7.71l-375.01,62.5
			C383.68,453.09,383.25,453.12,382.82,453.12z M390.64,76.91v359.17l359.39-59.89V17.02L390.64,76.91z"/>
	</g>
	<g>
		<path d="M146.89,249.53c0-30.11,18.85-52.46,48.52-52.46c29.69,0,48.39,22.35,48.39,52.46s-18.71,52.32-48.39,52.32
			C165.73,301.86,146.89,279.64,146.89,249.53z M222.98,249.53c0-20.11-9-35.72-27.43-35.72s-27.86,15.61-27.86,35.72
			c0,19.97,9.43,35.58,27.86,35.58S222.98,269.51,222.98,249.53z"/>
	</g>
	<g>
		<path d="M529.84,167.78h20.68L584,223.91c3.23,5.48,7.03,14.07,7.03,14.07h0.28c0,0-0.56-10.41-0.56-17.44v-52.75h20.12v100.57
			h-19.69l-34.33-55.56c-3.23-5.36-7.17-13.93-7.17-13.93h-0.28c0,0,0.56,10.54,0.56,17.58v51.91h-20.12V167.78z"/>
	</g>
</g>
</svg>
