<?xml version="1.0" encoding="utf-8"?>
<!-- Generator: Adobe Illustrator 25.4.1, SVG Export Plug-In . SVG Version: 6.00 Build 0)  -->
<svg version="1.1" id="Layer_1" xmlns="http://www.w3.org/2000/svg" xmlns:xlink="http://www.w3.org/1999/xlink" x="0px" y="0px"
	 viewBox="0 0 500 500" style="enable-background:new 0 0 500 500;" xml:space="preserve">
<style type="text/css">
	.st0{fill:#F0F0F0;}
	.st1{fill:#FC7FC1;}
	.st2{fill:#FF6941;}
	.st3{fill:#FFB600;}
	.st4{fill:#FFE800;}
	.st5{fill:#2E9DD1;}
	.st6{fill:#00C268;}
	.st7{fill:#C0C0C0;}
	.st8{fill:#FFFFFF;}
	.st9{fill:#241F20;}
	.st10{fill:#FFBFFF;}
	.st11{fill:#008FFF;}
</style>
<g>
	<g>
		<path d="M250,500C112.15,500,0,387.85,0,250S112.15,0,250,0s250,112.15,250,250S387.85,500,250,500z M250,20
			C123.17,20,20,123.17,20,250s103.17,230,230,230s230-103.17,230-230S376.83,20,250,20z"/>
	</g>
	<g>
		<path d="M192.77,239.59c0-38.16,23.76-67.32,61.76-67.32c31.69,0,50.41,18.89,53.12,43.38h-25.93
			c-2.34-12.97-12.07-21.43-27.19-21.43c-23.77,0-35.12,19.8-35.12,45.37c0,26.29,13.69,45.2,35.29,45.2
			c15.3,0,26.1-9.18,27.72-22.68h25.58c-0.72,11.33-5.59,22.32-14.23,30.43c-8.82,8.28-21.25,13.67-39.07,13.67
			C218.52,306.21,192.77,278.3,192.77,239.59z"/>
	</g>
</g>
</svg>
