<?xml version="1.0" encoding="utf-8"?>
<!-- Generator: Adobe Illustrator 25.4.1, SVG Export Plug-In . SVG Version: 6.00 Build 0)  -->
<svg version="1.1" id="Layer_1" xmlns="http://www.w3.org/2000/svg" xmlns:xlink="http://www.w3.org/1999/xlink" x="0px" y="0px"
	 viewBox="0 0 1460 500" style="enable-background:new 0 0 1460 500;" xml:space="preserve">
<style type="text/css">
	.st0{fill:#F0F0F0;}
	.st1{fill:#FC7FC1;}
	.st2{fill:#FF6941;}
	.st3{fill:#FFB600;}
	.st4{fill:#FFE800;}
	.st5{fill:#2E9DD1;}
	.st6{fill:#00C268;}
	.st7{fill:#C0C0C0;}
	.st8{fill:#FFFFFF;}
	.st9{fill:#241F20;}
	.st10{fill:#FFBFFF;}
	.st11{fill:#008FFF;}
</style>
<g>
	<g>
		<path class="st8" d="M1210,10H730H250C117.45,10,10,117.45,10,250s107.45,240,240,240h480h480c132.55,0,240-107.45,240-240
			S1342.55,10,1210,10z"/>
		<path d="M1210,500H250C112.15,500,0,387.85,0,250S112.15,0,250,0h960c137.85,0,250,112.15,250,250S1347.85,500,1210,500z M250,20
			C123.17,20,20,123.17,20,250s103.17,230,230,230h960c126.83,0,230-103.17,230-230S1336.83,20,1210,20H250z"/>
	</g>
	<g>
		<path d="M373.18,286.23h-0.36c-8.82,14.77-20.88,19.98-36.19,19.98c-19.44,0-34.57-7.01-45.2-18.71
			c-10.62-11.89-16.74-28.46-16.74-47.91c0-21.43,7.56-40.14,21.06-52.58c10.44-9.53,24.13-14.75,41.42-14.75
			c32.4,0,50.95,17.81,55.1,43.03H366.7c-2.88-12.42-12.42-21.43-28.98-21.43c-24.31,0-36.37,20.16-36.37,45.72
			c0,26.29,13.86,45.57,36.01,45.57c19.99,0,33.13-14.94,33.13-29.18v-0.72h-30.98V235.1h54.2v68.42h-19.63L373.18,286.23z"/>
		<path d="M411.86,174.79h94.71v21.95h-68.6v28.81h60.15v21.43h-60.15v34.77h69.14v21.78h-95.24V174.79z"/>
		<path d="M523.27,174.79h26.46l42.85,71.84c4.15,7.01,9,18.01,9,18.01h0.36c0,0-0.71-13.32-0.71-22.32v-67.52h25.74v128.73h-25.21
			l-43.94-71.11c-4.14-6.86-9.18-17.83-9.18-17.83h-0.36c0,0,0.72,13.5,0.72,22.5v66.45h-25.75V174.79z"/>
		<path d="M646.75,174.79h94.71v21.95h-68.59v28.81H733v21.43h-60.14v34.77H742v21.78h-95.25V174.79z"/>
		<path d="M758.17,174.79h59.06c24.84,0,41.41,14.39,41.41,35.82c0,15.12-7.02,26.64-23.58,31.15v0.55
			c11.88,3.42,18.01,10.25,19.63,25.92c1.8,18.18,1.07,32.05,5.58,34.02v1.27h-25.03c-3.24-1.45-3.59-15.84-4.68-29.71
			c-1.08-14.04-9-21.97-25.21-21.97h-21.06v51.68h-26.11V174.79z M784.29,231.68h27.72c14.22,0,21.24-7.38,21.24-17.66
			c0-10.43-6.66-18.18-20.52-18.18h-28.45V231.68z"/>
		<path d="M911.71,174.79h27.01l45.37,128.73H956.9l-8.64-27.36h-46.46l-8.46,27.36h-26.47L911.71,174.79z M907.93,256.15h34.03
			l-11.52-37.09c-2.17-6.84-5.22-19.8-5.22-19.8h-0.36c0,0-3.24,12.97-5.4,19.8L907.93,256.15z"/>
		<path d="M972,174.79h103.53v21.95h-38.71v106.78h-26.1V196.74H972V174.79z"/>
		<path d="M1088.64,174.79h94.71v21.95h-68.59v28.81h60.14v21.43h-60.14v34.77h69.14v21.78h-95.25V174.79z"/>
	</g>
</g>
</svg>
