<?xml version="1.0" encoding="utf-8"?>
<!-- Generator: Adobe Illustrator 25.4.1, SVG Export Plug-In . SVG Version: 6.00 Build 0)  -->
<svg version="1.1" id="Layer_1" xmlns="http://www.w3.org/2000/svg" xmlns:xlink="http://www.w3.org/1999/xlink" x="0px" y="0px"
	 viewBox="0 0 500 500" style="enable-background:new 0 0 500 500;" xml:space="preserve">
<style type="text/css">
	.st0{fill:#F0F0F0;}
	.st1{fill:#FC7FC1;}
	.st2{fill:#FF6941;}
	.st3{fill:#FFB600;}
	.st4{fill:#FFE800;}
	.st5{fill:#2E9DD1;}
	.st6{fill:#00C268;}
	.st7{fill:#C0C0C0;}
	.st8{fill:#FFFFFF;}
	.st9{fill:#241F20;}
	.st10{fill:#FFBFFF;}
	.st11{fill:#008FFF;}
</style>
<g>
	<g>
		
			<rect x="62.5" y="62.5" transform="matrix(-1 -1.224647e-16 1.224647e-16 -1 553.5748 553.5776)" class="st8" width="428.57" height="428.57"/>
		<path d="M491.07,500H62.5c-4.94,0-8.93-3.99-8.93-8.93V62.5c0-4.94,3.99-8.93,8.93-8.93h428.57c4.94,0,8.93,3.99,8.93,8.93v428.57
			C500,496.01,496.01,500,491.07,500z M71.43,482.14h410.71V71.43H71.43V482.14z"/>
	</g>
	<g>
		
			<rect x="8.93" y="8.93" transform="matrix(-1 -1.224647e-16 1.224647e-16 -1 446.432 446.4348)" class="st8" width="428.57" height="428.57"/>
		<path d="M437.5,446.43H8.93c-4.94,0-8.93-3.99-8.93-8.93V8.93C0,3.99,3.99,0,8.93,0H437.5c4.94,0,8.93,3.99,8.93,8.93V437.5
			C446.43,442.44,442.44,446.43,437.5,446.43z M17.86,428.57h410.71V17.86H17.86V428.57z"/>
	</g>
	<g>
		<path d="M178.3,234.03v-77.97h23.32v77.97c0,11.89,5.95,20.25,21.55,20.25c14.79,0,21.7-8.68,21.7-20.58v-77.64h23.31v77.97
			c0,24.59-15.11,38.91-44.53,38.91C193.9,272.93,178.3,258.95,178.3,234.03z"/>
	</g>
</g>
</svg>
