<?xml version="1.0" encoding="utf-8"?>
<!-- Generator: Adobe Illustrator 25.4.1, SVG Export Plug-In . SVG Version: 6.00 Build 0)  -->
<svg version="1.1" id="Layer_1" xmlns="http://www.w3.org/2000/svg" xmlns:xlink="http://www.w3.org/1999/xlink" x="0px" y="0px"
	 viewBox="0 0 447 500" style="enable-background:new 0 0 447 500;" xml:space="preserve">
<style type="text/css">
	.st0{fill:#F0F0F0;}
	.st1{fill:#FC7FC1;}
	.st2{fill:#FF6941;}
	.st3{fill:#FFB600;}
	.st4{fill:#FFE800;}
	.st5{fill:#2E9DD1;}
	.st6{fill:#00C268;}
	.st7{fill:#C0C0C0;}
	.st8{fill:#FFFFFF;}
	.st9{fill:#241F20;}
	.st10{fill:#FFBFFF;}
	.st11{fill:#008FFF;}
</style>
<g>
	<g>
		<path class="st0" d="M276.79,491.07H169.64c-88.76,0-160.71-71.95-160.71-160.71l0-107.14c0-88.76,71.95-160.71,160.71-160.71
			h107.14c88.76,0,160.71,71.95,160.71,160.71v107.14C437.5,419.12,365.55,491.07,276.79,491.07z"/>
		<path d="M276.79,500H169.64C76.1,500,0,423.9,0,330.36V223.21C0,129.67,76.1,53.57,169.64,53.57h107.14
			c93.54,0,169.64,76.1,169.64,169.64v107.14C446.43,423.9,370.33,500,276.79,500z M169.64,71.43
			c-83.7,0-151.79,68.09-151.79,151.79v107.14c0,83.7,68.09,151.79,151.79,151.79h107.14c83.7,0,151.79-68.09,151.79-151.79V223.21
			c0-83.7-68.09-151.79-151.79-151.79H169.64z"/>
	</g>
	<g>
		<path class="st0" d="M276.79,437.5H169.64c-88.76,0-160.71-71.95-160.71-160.71l0-107.14C8.93,80.89,80.88,8.93,169.64,8.93
			h107.14c88.76,0,160.71,71.95,160.71,160.71v107.14C437.5,365.55,365.55,437.5,276.79,437.5z"/>
		<path d="M276.79,446.43H169.64C76.1,446.43,0,370.33,0,276.79V169.64C0,76.1,76.1,0,169.64,0h107.14
			c93.54,0,169.64,76.1,169.64,169.64v107.14C446.43,370.33,370.33,446.43,276.79,446.43z M169.64,17.86
			c-83.7,0-151.79,68.09-151.79,151.79v107.14c0,83.7,68.09,151.79,151.79,151.79h107.14c83.7,0,151.79-68.09,151.79-151.79V169.64
			c0-83.7-68.09-151.79-151.79-151.79H169.64z"/>
	</g>
	<g>
		<path d="M175.33,235.46h22.83c1.61,13.81,9.49,19.29,25.89,19.29c11.89,0,22.34-4.19,22.34-14.79c0-11.27-10.93-13.51-28.45-17.53
			c-20.58-4.66-39.39-10.13-39.39-34.08c0-22.67,18.48-34.41,44.05-34.41c25.88,0,42.6,12.7,44.36,35.85h-22.34
			c-1.29-11.58-10.29-17.37-22.19-17.37c-12.54,0-20.73,5.3-20.73,13.5c0,9.33,8.04,12.07,25.08,15.76
			c23.63,5.14,42.93,10.76,42.93,35.52c0,23.32-18.81,36.32-44.7,36.32C193.81,273.55,176.13,259.74,175.33,235.46z"/>
	</g>
</g>
</svg>
