<?xml version="1.0" encoding="utf-8"?>
<!-- Generator: Adobe Illustrator 25.4.1, SVG Export Plug-In . SVG Version: 6.00 Build 0)  -->
<svg version="1.1" id="Layer_1" xmlns="http://www.w3.org/2000/svg" xmlns:xlink="http://www.w3.org/1999/xlink" x="0px" y="0px"
	 viewBox="0 0 766 500" style="enable-background:new 0 0 766 500;" xml:space="preserve">
<style type="text/css">
	.st0{fill:#F0F0F0;}
	.st1{fill:#FC7FC1;}
	.st2{fill:#FF6941;}
	.st3{fill:#FFB600;}
	.st4{fill:#FFE800;}
	.st5{fill:#2E9DD1;}
	.st6{fill:#00C268;}
	.st7{fill:#C0C0C0;}
	.st8{fill:#FFFFFF;}
	.st9{fill:#241F20;}
	.st10{fill:#FFBFFF;}
	.st11{fill:#008FFF;}
</style>
<g>
	<g>
		
			<rect x="7.99" y="117.18" transform="matrix(-1 -1.224647e-16 1.224647e-16 -1 766.003 609.3681)" class="st0" width="750.02" height="375.01"/>
		<path d="M758.01,500H7.99c-4.32,0-7.81-3.49-7.81-7.81V117.18c0-4.32,3.49-7.81,7.81-7.81h750.02c4.32,0,7.81,3.49,7.81,7.81
			v375.01C765.82,496.51,762.33,500,758.01,500z M15.8,484.37h734.4V124.99H15.8V484.37z"/>
	</g>
	<g>
		
			<rect x="383" y="70.3" transform="matrix(-1 -1.224647e-16 1.224647e-16 -1 1141.0148 515.6152)" class="st0" width="375.01" height="375.01"/>
		<path d="M758.01,453.12H383c-4.32,0-7.81-3.49-7.81-7.81V70.3c0-4.32,3.49-7.81,7.81-7.81h375.01c4.32,0,7.81,3.49,7.81,7.81
			v375.01C765.82,449.63,762.33,453.12,758.01,453.12z M390.81,437.5H750.2V78.11H390.81V437.5z"/>
	</g>
	<g>
		<polygon class="st7" points="7.99,382.81 383,445.31 383,70.3 7.99,7.8 		"/>
		<path d="M383,453.12c-0.43,0-0.85-0.04-1.28-0.11L6.71,390.51c-3.77-0.63-6.53-3.88-6.53-7.71V7.8c0-2.3,1.01-4.48,2.76-5.96
			C4.69,0.35,7-0.24,9.27,0.09l375.01,62.5c3.77,0.63,6.53,3.88,6.53,7.71v375.01c0,2.3-1.01,4.48-2.76,5.96
			C386.63,452.48,384.84,453.12,383,453.12z M15.8,376.19l359.39,59.89V76.91L15.8,17.02V376.19z"/>
	</g>
	<g>
		<path d="M147.06,218.28c0-30.11,18.85-52.46,48.52-52.46s48.39,22.35,48.39,52.46s-18.71,52.32-48.39,52.32
			S147.06,248.39,147.06,218.28z M223.16,218.28c0-20.11-9-35.72-27.44-35.72c-18.42,0-27.85,15.61-27.85,35.72
			c0,19.97,9.43,35.58,27.85,35.58C214.16,253.87,223.16,238.26,223.16,218.28z"/>
	</g>
	<g>
		<path d="M530,199.04h20.68l33.49,56.12c3.23,5.48,7.03,14.07,7.03,14.07h0.28c0,0-0.56-10.41-0.56-17.44v-52.75h20.12v100.57
			h-19.69l-34.33-55.56c-3.23-5.36-7.17-13.93-7.17-13.93h-0.28c0,0,0.56,10.54,0.56,17.58v51.91H530V199.04z"/>
	</g>
</g>
</svg>
