<?xml version="1.0" encoding="utf-8"?>
<!-- Generator: Adobe Illustrator 25.4.1, SVG Export Plug-In . SVG Version: 6.00 Build 0)  -->
<svg version="1.1" id="Layer_1" xmlns="http://www.w3.org/2000/svg" xmlns:xlink="http://www.w3.org/1999/xlink" x="0px" y="0px"
	 viewBox="0 0 1460 500" style="enable-background:new 0 0 1460 500;" xml:space="preserve">
<style type="text/css">
	.st0{fill:#F0F0F0;}
	.st1{fill:#FC7FC1;}
	.st2{fill:#FF6941;}
	.st3{fill:#FFB600;}
	.st4{fill:#FFE800;}
	.st5{fill:#2E9DD1;}
	.st6{fill:#00C268;}
	.st7{fill:#C0C0C0;}
	.st8{fill:#FFFFFF;}
	.st9{fill:#241F20;}
	.st10{fill:#FFBFFF;}
	.st11{fill:#008FFF;}
</style>
<g>
	<path d="M1330,500H130C58.32,500,0,441.68,0,370V130C0,58.32,58.32,0,130,0h1200c71.68,0,130,58.32,130,130v240
		C1460,441.68,1401.68,500,1330,500z M130,20C69.36,20,20,69.35,20,130v240c0,60.65,49.36,110,110,110h1200
		c60.64,0,110-49.35,110-110V130c0-60.65-49.36-110-110-110H130z"/>
</g>
</svg>
