<?xml version="1.0" encoding="utf-8"?>
<!-- Generator: Adobe Illustrator 25.4.1, SVG Export Plug-In . SVG Version: 6.00 Build 0)  -->
<svg version="1.1" id="Layer_1" xmlns="http://www.w3.org/2000/svg" xmlns:xlink="http://www.w3.org/1999/xlink" x="0px" y="0px"
	 viewBox="0 0 500 500" style="enable-background:new 0 0 500 500;" xml:space="preserve">
<style type="text/css">
	.st0{fill:#F0F0F0;}
	.st1{fill:#FC7FC1;}
	.st2{fill:#FF6941;}
	.st3{fill:#FFB600;}
	.st4{fill:#FFE800;}
	.st5{fill:#2E9DD1;}
	.st6{fill:#00C268;}
	.st7{fill:#C0C0C0;}
	.st8{fill:#FFFFFF;}
	.st9{fill:#241F20;}
	.st10{fill:#FFBFFF;}
	.st11{fill:#008FFF;}
</style>
<g>
	<g>
		<path class="st4" d="M310,490H190c-99.41,0-180-80.59-180-180V190C10,90.59,90.59,10,190,10h120c99.41,0,180,80.59,180,180v120
			C490,409.41,409.41,490,310,490z"/>
		<path d="M310,500H190C85.23,500,0,414.77,0,310V190C0,85.23,85.23,0,190,0h120c104.77,0,190,85.23,190,190v120
			C500,414.77,414.77,500,310,500z M190,20C96.26,20,20,96.26,20,190v120c0,93.74,76.26,170,170,170h120c93.74,0,170-76.26,170-170
			V190c0-93.74-76.26-170-170-170H190z"/>
	</g>
	<g>
		<path d="M198.17,174.79h26.46l42.86,71.84c4.14,7.01,8.99,18.01,8.99,18.01h0.36c0,0-0.72-13.32-0.72-22.32v-67.52h25.75v128.73
			h-25.21l-43.94-71.11c-4.14-6.86-9.18-17.83-9.18-17.83h-0.36c0,0,0.72,13.5,0.72,22.5v66.45h-25.75V174.79z"/>
	</g>
</g>
</svg>
